# xmcd
#
# Track frame offsets:
#	150
#	18927
#	36592
#	54970
#	69755
#	81255
#	96812
#	117517
#	133910
#	147505
#	161220
#	176015
#	195505
#	209180
#	226412
#	242392
#	260197
#	273760
#	290775
#
# Disc length: 4029 seconds
#
# Revision: 0
# Processed by: cddbd v1.4PL0 Copyright (c) Steve Scherf et al.
# Submitted via: dBpowerAMP V4.0
#
DISCID=250fbb13
DTITLE=divers - Les tubes de vos 20 ans
DYEAR=1900
DGENRE=
TTITLE0=America- horse with no name
TTITLE1=Chicago-Saturday in the park
TTITLE2=Procol harum-Conquistador
TTITLE3=Gérard Palaprat-Pour la fin du monde
TTITLE4=Il était une fois-Rien qu'un ciel
TTITLE5=Hurricane smith-Oh babe , what would you say
TTITLE6=Peter Skellern-You are a lady
TTITLE7=Gilbert O Sullivan-Alone again
TTITLE8=Dalida-Parles plus bas
TTITLE9=C Jeron-Kiss me
TTITLE10=Sheila-Poupée de porcelaine
TTITLE11=Stone et charden-Made in Normandie
TTITLE12=Patrick Juvet-La musica
TTITLE13=Jacques Dutronc- Le petit jardin
TTITLE14=Slade- Coz i luv you
TTITLE15=Elton Jone- Crocodile Rock
TTITLE16=Gary Glitter- Rock and Roll
TTITLE17=Deep Purple-Smoke on the water
TTITLE18=Hot Butter- pop com
EXTD=Les tubes de vos 20 ans (1972)
EXTT0=
EXTT1=
EXTT2=
EXTT3=
EXTT4=
EXTT5=
EXTT6=
EXTT7=
EXTT8=
EXTT9=
EXTT10=
EXTT11=
EXTT12=
EXTT13=
EXTT14=
EXTT15=
EXTT16=
EXTT17=
EXTT18=
PLAYORDER=
